:SAMPLES-PER-SECOND 30
:FULLY-SPECIFIED
:DEGREES
226
root  -41.8522 34.9006 3.48096 -171.802 86.9983 -176.558
RightUpLeg  -4.65732 -15.9402 -3.96432
RightLeg  7.11614 -5.16136 -0.307362
RightFoot  6.42184 0.0538607 -0.394116
RightToes  -29.0195 -0.137926 -0.245094
Spine  -2.18217 0.461955 0.426267
Spine1  -4.36327 1.06638 1.54948
HEad  -45.1575 14.2257 -2.08265
LeftShoulder1  -1.94126e-019 -3.10601e-018 -2.51263e-017
LeftArm  3.64628 19.0725 -84.5995
LeftForeArm  31.4029 -31.5855 -5.15339
LeftHand  -0.347709 -1.61812 5.92951
RightShoulder  -4.96962e-017 0 -2.36833e-017
RightArm  -13.2723 -19.5367 77.1884
RightForeArm  53.2177 22.8345 2.21652
RightHand  -0.408788 -0.334418 -9.40123
LeftUpLeg  -7.51162 2.4608 3.2377
LeftLeg  11.5615 15.5912 2.12872
LeftFoot  5.67478 -0.0791642 1.75873
LeftToes  -23.6902 2.40056e-006 -7.68412e-008
227
root  -41.8445 34.9013 3.42741 -172.704 86.9704 -177.715
RightUpLeg  -4.72272 -16.0769 -4.05022
RightLeg  6.76509 -5.05837 -0.27019
RightFoot  6.62864 0.055595 -0.402078
RightToes  -29.1718 -0.139095 -0.245102
Spine  -2.10899 0.380441 0.417745
Spine1  -4.21897 0.898315 1.533
HEad  -44.0886 14.4431 -1.86326
LeftShoulder1  -1.94126e-019 -3.10601e-018 -2.51263e-017
LeftArm  3.37693 19.0385 -84.6226
LeftForeArm  31.2799 -31.3951 -5.11493
LeftHand  -0.348872 -1.53112 6.01665
RightShoulder  -4.96962e-017 0 -2.36833e-017
RightArm  -14.0154 -19.4401 77.1303
RightForeArm  53.5204 20.4689 1.75224
RightHand  -0.401896 -0.503616 -9.54575
LeftUpLeg  -7.5242 2.45246 3.08122
LeftLeg  11.0922 15.6064 2.00244
LeftFoot  5.78271 -0.0821303 1.78759
LeftToes  -23.5628 2.40056e-006 -7.68412e-008
228
root  -41.84 34.903 3.36393 -174.4 86.8555 -179.678
RightUpLeg  -4.80217 -16.2545 -4.19182
RightLeg  6.44554 -5.01249 -0.23976
RightFoot  6.84892 0.0574963 -0.41688
RightToes  -29.4264 -0.139991 -0.245132
Spine  -2.01226 0.302585 0.373674
Spine1  -4.0271 0.742019 1.43873
HEad  -42.947 14.7046 -1.54435
LeftShoulder1  -1.94126e-019 -3.10601e-018 -2.51263e-017
LeftArm  2.82688 19.4489 -84.4836
LeftForeArm  30.6891 -31.5371 -5.18513
LeftHand  -0.357061 -1.28931 6.35733
RightShoulder  -4.96962e-017 0 -2.36833e-017
RightArm  -14.7735 -19.3824 76.9684
RightForeArm  53.6587 17.7553 1.24581
RightHand  -0.399031 -0.624394 -9.7055
LeftUpLeg  -7.55598 2.291 2.86574
LeftLeg  10.5965 15.6906 1.87703
LeftFoot  5.95903 -0.0878745 1.84311
LeftToes  -23.477 2.40056e-006 -7.68412e-008
229
root  -41.8379 34.899 3.30492 -176.266 86.6265 178.241
RightUpLeg  -4.95742 -16.5245 -4.35999
RightLeg  6.42302 -4.97839 -0.236172
RightFoot  6.88297 0.0581966 -0.415469
RightToes  -29.4295 -0.140696 -0.245184
Spine  -1.9286 0.203593 0.350205
Spine1  -3.86745 0.555498 1.36754
HEad  -41.5398 14.9705 -1.25021
LeftShoulder1  -1.94126e-019 -3.10601e-018 -2.51263e-017
LeftArm  2.91323 20.4426 -83.9784
LeftForeArm  29.3633 -32.1193 -5.40465
LeftHand  -0.356392 -1.00873 6.6002
RightShoulder  -4.96962e-017 0 -2.36833e-017
RightArm  -14.9363 -19.6356 76.4378
RightForeArm  54.049 15.8234 1.09564
RightHand  -0.377891 -0.846722 -9.61538
LeftUpLeg  -7.61163 2.21423 2.64889
LeftLeg  10.2053 15.5764 1.75736
LeftFoot  6.11629 -0.0921491 1.86895
LeftToes  -23.4675 2.40056e-006 -7.68412e-008
230
root  -41.8291 34.8934 3.24547 -178.892 86.5324 175.337
RightUpLeg  -5.25523 -16.814 -4.56584
RightLeg  6.52654 -4.80133 -0.236451
RightFoot  6.89514 0.0576711 -0.397459
RightToes  -29.6857 -0.141354 -0.245255
Spine  -1.87434 0.0811994 0.367414
Spine1  -3.76538 0.313153 1.37988
HEad  -40.3878 15.399 -1.29776
LeftShoulder1  -1.94126e-019 -3.10601e-018 -2.51263e-017
LeftArm  3.94455 21.819 -83.1612
LeftForeArm  27.5661 -32.8182 -5.68517
LeftHand  -0.34239 -0.787101 6.55368
RightShoulder  -4.96962e-017 0 -2.36833e-017
RightArm  -15.1573 -19.9445 75.6087
RightForeArm  55.4805 14.3666 1.2167
RightHand  -0.366468 -0.840763 -9.31074
LeftUpLeg  -7.55807 2.31315 2.3638
LeftLeg  9.53353 15.4509 1.56272
LeftFoot  6.33907 -0.0976415 1.90854
LeftToes  -23.4131 2.40056e-006 -7.68412e-008
